<?xml version="1.0" standalone="no"?>
<!DOCTYPE svg PUBLIC "-//W3C//DTD SVG 20010904//EN"
 "http://www.w3.org/TR/2001/REC-SVG-20010904/DTD/svg10.dtd">
<svg version="1.0" xmlns="http://www.w3.org/2000/svg"
 width="1080.000000pt" height="1080.000000pt" viewBox="0 0 1080.000000 1080.000000"
 preserveAspectRatio="xMidYMid meet">
<metadata>
Created by potrace 1.11, written by Peter Selinger 2001-2013
</metadata>
<g transform="translate(0.000000,1080.000000) scale(0.100000,-0.100000)"
fill="#000000" stroke="none">
<path d="M5189 7562 c-38 -31 -37 -59 6 -123 l36 -52 -3 -331 -3 -331 -96
-165 c-53 -91 -107 -185 -121 -210 -14 -25 -51 -90 -83 -145 -32 -55 -76 -131
-98 -170 -22 -38 -55 -95 -73 -125 -154 -266 -157 -271 -161 -350 -4 -67 -2
-79 19 -110 13 -19 42 -45 64 -57 l40 -22 790 -7 c595 -4 801 -3 834 6 54 14
105 51 125 90 19 36 19 115 1 166 -11 33 -214 394 -542 965 l-84 146 0 324 0
325 31 42 c42 57 48 103 18 130 -26 25 -77 37 -115 28 -19 -5 -25 -12 -22 -29
2 -18 10 -23 43 -25 74 -5 77 -15 19 -85 l-24 -29 0 -350 0 -351 84 -146 c45
-80 132 -231 191 -336 59 -104 131 -230 160 -280 184 -318 199 -347 199 -406
1 -62 -14 -87 -69 -118 -27 -14 -96 -16 -645 -19 -338 -1 -702 1 -809 6 l-193
8 -35 38 c-34 37 -35 41 -30 95 5 59 2 54 335 631 52 91 114 199 137 240 23
41 70 123 103 181 l62 106 0 352 0 352 -31 39 c-40 49 -34 70 19 70 36 0 39 2
34 25 -7 42 -68 45 -113 7z"/>
<path d="M1322 6653 c82 -2 214 -2 295 0 82 1 15 3 -147 3 -162 0 -229 -2
-148 -3z"/>
<path d="M4115 6650 c3 -5 8 -10 11 -10 2 0 4 5 4 10 0 6 -5 10 -11 10 -5 0
-7 -4 -4 -10z"/>
<path d="M4175 6650 c3 -5 8 -10 11 -10 2 0 4 5 4 10 0 6 -5 10 -11 10 -5 0
-7 -4 -4 -10z"/>
<path d="M4321 6657 c2 -1 12 -9 22 -16 14 -12 17 -11 17 3 0 10 -8 16 -22 16
-12 0 -19 -1 -17 -3z"/>
<path d="M5270 6549 c-17 -29 -36 -61 -41 -73 -5 -12 -19 -37 -31 -58 -13 -20
-50 -83 -82 -140 -33 -56 -94 -161 -136 -233 -200 -339 -216 -369 -226 -421
-7 -39 28 -122 55 -131 9 -2 24 -9 33 -14 11 -5 305 -9 713 -9 l695 0 37 33
c31 29 37 41 41 90 4 51 1 62 -44 149 -27 51 -51 95 -54 98 -8 8 -36 58 -121
215 -24 44 -53 98 -66 120 -12 22 -39 73 -60 113 -49 94 -65 122 -113 207 -22
39 -43 78 -46 88 -6 16 -28 17 -264 17 l-258 0 -32 -51z m218 -16 c19 -26 14
-57 -13 -87 -30 -33 -59 -33 -90 -1 -37 36 -29 90 15 108 24 10 74 -2 88 -20z
m414 -306 c71 -62 55 -149 -35 -192 -35 -16 -38 -16 -80 4 -49 24 -67 53 -67
111 0 58 45 100 108 100 35 0 54 -6 74 -23z m-484 -64 c49 -32 67 -74 59 -137
-8 -57 -63 -106 -121 -106 -109 0 -177 130 -110 210 28 32 74 58 109 59 12 1
40 -11 63 -26z m-375 -324 c71 -32 53 -138 -23 -139 -31 0 -44 8 -59 38 -17
33 -5 75 27 95 33 20 26 19 55 6z m931 -85 c28 -27 20 -72 -16 -94 -31 -19
-32 -19 -60 1 -32 23 -37 62 -11 91 20 22 66 24 87 2z"/>
<path d="M4366 6568 c-3 -13 -6 -274 -6 -580 l0 -558 -105 0 c-88 0 -105 -3
-105 -15 0 -13 17 -15 111 -13 l111 3 1 593 c1 325 1 592 1 592 -1 0 -4 -10
-8 -22z"/>
<path d="M1193 6520 c0 -25 2 -35 4 -22 2 12 2 32 0 45 -2 12 -4 2 -4 -23z"/>
<path d="M7823 6490 c0 -25 2 -35 4 -22 2 12 2 32 0 45 -2 12 -4 2 -4 -23z"/>
<path d="M8430 6470 c-8 -5 -45 -10 -81 -10 -48 0 -70 -4 -79 -16 -16 -18 -31
-104 -18 -104 4 0 8 11 8 25 0 26 33 66 60 74 8 3 38 7 67 9 32 2 54 9 57 18
6 16 6 17 -14 4z"/>
<path d="M1473 6442 c-8 -5 -9 -46 -4 -157 l8 -150 1 131 2 132 29 12 c20 8
74 11 166 8 74 -1 130 -1 123 1 -7 2 -19 10 -26 18 -10 10 -49 13 -150 13 -75
0 -142 -4 -149 -8z"/>
<path d="M7705 6421 c-122 -7 -112 -21 16 -21 51 0 81 5 95 15 10 8 15 14 9
13 -5 -1 -59 -4 -120 -7z"/>
<path d="M2753 6333 c9 -2 23 -2 30 0 6 3 -1 5 -18 5 -16 0 -22 -2 -12 -5z"/>
<path d="M3465 6330 c-3 -5 -1 -10 4 -10 6 0 11 5 11 10 0 6 -2 10 -4 10 -3 0
-8 -4 -11 -10z"/>
<path d="M3703 6333 c9 -2 23 -2 30 0 6 3 -1 5 -18 5 -16 0 -22 -2 -12 -5z"/>
<path d="M2538 6323 c7 -3 16 -2 19 1 4 3 -2 6 -13 5 -11 0 -14 -3 -6 -6z"/>
<path d="M7011 6304 c0 -11 3 -14 6 -6 3 7 2 16 -1 19 -3 4 -6 -2 -5 -13z"/>
<path d="M2192 6283 c-1 -13 -6 -23 -11 -23 -5 0 -9 -6 -8 -12 2 -57 -4 -88
-18 -88 -8 0 -14 -3 -13 -7 5 -25 -68 -123 -91 -123 -6 0 -11 -6 -11 -14 0 -7
-15 -17 -32 -22 -34 -10 -48 -38 -30 -56 7 -7 16 -6 27 6 9 9 19 16 23 16 4 0
22 13 40 30 18 16 37 30 41 32 17 7 69 96 80 138 7 25 11 68 8 95 -2 28 -4 40
-5 28z"/>
<path d="M3330 6290 c-13 -8 -13 -10 2 -10 9 0 20 5 23 10 8 13 -5 13 -25 0z"/>
<path d="M2424 6276 c-10 -8 -16 -17 -13 -20 3 -3 14 3 24 14 21 23 17 26 -11
6z"/>
<path d="M3298 6263 c7 -3 16 -2 19 1 4 3 -2 6 -13 5 -11 0 -14 -3 -6 -6z"/>
<path d="M7014 6005 c0 -137 2 -195 3 -128 2 67 2 179 0 250 -1 70 -3 16 -3
-122z"/>
<path d="M8421 6204 c0 -11 3 -14 6 -6 3 7 2 16 -1 19 -3 4 -6 -2 -5 -13z"/>
<path d="M2618 6183 c-10 -2 -18 -8 -18 -13 0 -5 -9 -12 -20 -15 -11 -3 -20
-11 -20 -16 0 -5 -9 -18 -20 -29 -14 -14 -20 -33 -20 -67 0 -54 2 -53 39 18
33 64 70 88 146 96 55 6 69 15 39 27 -17 7 -99 6 -126 -1z"/>
<path d="M3516 6180 c-33 -10 -86 -57 -86 -76 0 -32 -29 -43 -104 -37 -51 4
-75 2 -81 -6 -4 -7 -5 -14 -3 -16 2 -2 46 -7 98 -10 l95 -7 14 33 c8 19 22 40
30 47 32 26 97 52 133 52 26 0 36 4 33 13 -6 15 -88 19 -129 7z"/>
<path d="M8783 6170 c-59 -12 -99 -51 -113 -112 -15 -62 -9 -70 14 -18 21 48
91 110 123 110 14 0 23 6 23 15 0 8 -1 15 -2 14 -2 -1 -22 -5 -45 -9z"/>
<path d="M8845 6160 c3 -5 16 -10 28 -9 21 0 21 1 2 9 -28 12 -37 12 -30 0z"/>
<path d="M3668 6153 c7 -3 16 -2 19 1 4 3 -2 6 -13 5 -11 0 -14 -3 -6 -6z"/>
<path d="M1518 6113 c7 -3 16 -2 19 1 4 3 -2 6 -13 5 -11 0 -14 -3 -6 -6z"/>
<path d="M1568 6113 c6 -2 18 -2 25 0 6 3 1 5 -13 5 -14 0 -19 -2 -12 -5z"/>
<path d="M1648 6113 c6 -2 18 -2 25 0 6 3 1 5 -13 5 -14 0 -19 -2 -12 -5z"/>
<path d="M3999 6098 c-7 -24 -8 -560 -1 -603 7 -45 10 26 11 273 0 182 -1 332
-4 332 -3 0 -5 -1 -6 -2z"/>
<path d="M7910 6090 c0 -5 11 -10 25 -10 14 0 25 5 25 10 0 6 -11 10 -25 10
-14 0 -25 -4 -25 -10z"/>
<path d="M8246 6085 c-3 -8 -3 -22 0 -30 6 -14 8 -14 18 0 6 8 35 19 64 24 77
12 75 21 -5 21 -54 0 -72 -4 -77 -15z"/>
<path d="M3722 6060 c0 -14 2 -19 5 -12 2 6 2 18 0 25 -3 6 -5 1 -5 -13z"/>
<path d="M3111 5974 c0 -11 3 -14 6 -6 3 7 2 16 -1 19 -3 4 -6 -2 -5 -13z"/>
<path d="M2653 5973 c26 -2 67 -2 90 0 23 2 2 3 -48 3 -49 0 -68 -1 -42 -3z"/>
<path d="M3603 5973 c9 -2 25 -2 35 0 9 3 1 5 -18 5 -19 0 -27 -2 -17 -5z"/>
<path d="M3358 5933 c6 -2 18 -2 25 0 6 3 1 5 -13 5 -14 0 -19 -2 -12 -5z"/>
<path d="M2233 5885 c0 -27 2 -38 4 -22 2 15 2 37 0 50 -2 12 -4 0 -4 -28z"/>
<path d="M1464 5908 c-4 -5 -5 -115 -5 -244 l2 -234 -128 0 c-115 -1 -126 -2
-109 -15 25 -19 226 -21 244 -3 9 9 12 76 12 239 l0 228 45 7 c25 3 74 4 110
2 62 -4 64 -3 48 14 -14 16 -31 18 -115 17 -55 -2 -101 -7 -104 -11z"/>
<path d="M3117 5878 l-8 -38 -127 1 c-70 1 -202 1 -294 0 l-167 -1 -5 -32 c-3
-18 -2 -49 4 -68 l9 -35 -3 33 c-1 17 1 32 6 32 4 0 8 6 8 14 0 26 54 31 318
31 260 0 263 0 268 21 3 12 4 35 2 50 -3 28 -4 27 -11 -8z"/>
<path d="M3270 5880 c0 -11 2 -20 4 -20 2 0 6 9 9 20 3 11 1 20 -4 20 -5 0 -9
-9 -9 -20z"/>
<path d="M3643 5860 c-13 -5 -23 -7 -23 -3 0 3 -6 1 -12 -5 -7 -5 -32 -13 -55
-17 -23 -3 -47 -13 -54 -21 -6 -8 -16 -14 -22 -14 -5 0 -18 -10 -28 -22 -15
-17 -19 -36 -18 -92 1 -70 1 -70 9 -23 12 67 51 110 126 136 33 11 70 21 82
21 11 0 24 5 27 10 3 6 15 10 26 10 23 0 25 15 3 24 -20 8 -34 7 -61 -4z"/>
<path d="M1731 5804 c0 -11 3 -14 6 -6 3 7 2 16 -1 19 -3 4 -6 -2 -5 -13z"/>
<path d="M8658 5808 c-2 -7 -2 -26 1 -42 l6 -30 12 27 13 27 270 0 c228 0 274
2 286 15 14 13 -18 15 -284 15 -231 0 -301 -3 -304 -12z"/>
<path d="M3722 5790 c0 -14 2 -19 5 -12 2 6 2 18 0 25 -3 6 -5 1 -5 -13z"/>
<path d="M2958 5713 c23 -2 61 -2 85 0 23 2 4 4 -43 4 -47 0 -66 -2 -42 -4z"/>
<path d="M3152 5660 c0 -14 2 -19 5 -12 2 6 2 18 0 25 -3 6 -5 1 -5 -13z"/>
<path d="M3070 5627 c-24 -39 -51 -73 -86 -109 -20 -20 -142 -81 -195 -97 -50
-15 -164 -13 -229 4 -30 8 -59 15 -65 15 -18 0 32 -29 61 -35 154 -34 255 -30
348 14 104 49 230 195 202 233 -9 13 -15 9 -36 -25z"/>
<path d="M3696 5643 c-6 -14 -5 -15 5 -6 7 7 10 15 7 18 -3 3 -9 -2 -12 -12z"/>
<path d="M9221 5608 c-54 -91 -130 -164 -206 -197 -16 -7 -38 -17 -47 -22 -10
-5 -34 -9 -53 -9 -20 0 -56 -5 -81 -11 -34 -9 -48 -9 -57 0 -6 6 -31 11 -56
10 l-46 -1 35 -9 c19 -4 41 -6 48 -4 6 2 12 -1 12 -7 0 -17 166 -3 240 20 83
27 188 118 216 187 11 25 22 45 27 45 4 0 7 7 7 15 0 25 -19 17 -39 -17z"/>
<path d="M2638 5593 c7 -3 16 -2 19 1 4 3 -2 6 -13 5 -11 0 -14 -3 -6 -6z"/>
<path d="M2748 5593 c7 -3 16 -2 19 1 4 3 -2 6 -13 5 -11 0 -14 -3 -6 -6z"/>
<path d="M1831 5564 c0 -11 3 -14 6 -6 3 7 2 16 -1 19 -3 4 -6 -2 -5 -13z"/>
<path d="M7523 5500 c0 -47 2 -66 4 -42 2 23 2 61 0 85 -2 23 -4 4 -4 -43z"/>
<path d="M3488 5563 c7 -3 16 -2 19 1 4 3 -2 6 -13 5 -11 0 -14 -3 -6 -6z"/>
<path d="M3191 5534 c0 -11 3 -14 6 -6 3 7 2 16 -1 19 -3 4 -6 -2 -5 -13z"/>
<path d="M3655 5495 c-39 -36 -72 -57 -95 -61 -19 -4 -40 -10 -46 -15 -6 -5
-41 -11 -78 -13 -37 -2 -70 -6 -72 -9 -3 -3 22 -8 55 -12 126 -14 217 18 304
109 21 22 25 32 16 42 -6 8 -14 14 -18 14 -3 -1 -33 -25 -66 -55z"/>
<path d="M3273 5456 c1 -11 9 -21 17 -23 10 -3 11 -2 4 4 -6 4 -14 15 -17 23
-5 11 -6 9 -4 -4z"/>
<path d="M1186 5445 c-3 -8 -1 -15 4 -15 6 0 10 7 10 15 0 8 -2 15 -4 15 -2 0
-6 -7 -10 -15z"/>
<path d="M3760 5436 c0 -2 7 -6 15 -10 8 -3 15 -1 15 4 0 6 -7 10 -15 10 -8 0
-15 -2 -15 -4z"/>
<path d="M1920 5414 c0 -12 24 -15 140 -13 115 1 140 3 140 15 0 12 -24 15
-140 13 -114 -1 -140 -4 -140 -15z"/>
<path d="M3800 5415 c0 -12 17 -15 94 -15 96 0 126 5 126 21 0 5 -49 9 -110 9
-91 0 -110 -3 -110 -15z"/>
<path d="M3330 5410 c0 -5 5 -10 10 -10 6 0 10 5 10 10 0 6 -4 10 -10 10 -5 0
-10 -4 -10 -10z"/>
<path d="M7520 5399 c0 -5 5 -7 10 -4 6 3 10 8 10 11 0 2 -4 4 -10 4 -5 0 -10
-5 -10 -11z"/>
<path d="M8243 5396 c-7 -12 -32 -16 -118 -19 l-110 -3 116 -2 c100 -2 118 0
123 14 9 22 0 30 -11 10z"/>
<path d="M6947 5373 c105 -2 281 -2 390 0 109 1 23 2 -192 2 -214 0 -304 -1
-198 -2z"/>
<path d="M7653 5373 c32 -2 81 -2 110 0 29 2 3 3 -58 3 -60 0 -84 -1 -52 -3z"/>
<path d="M1160 5167 c0 -53 0 -53 45 -75 l44 -21 3991 -1 c3463 0 3993 2 4006
14 17 18 18 44 2 96 l-13 40 -4037 0 -4038 0 0 -53z"/>
<path d="M1655 4798 c-94 -7 -129 -16 -209 -52 -206 -92 -321 -248 -333 -452
-8 -125 14 -223 68 -304 87 -129 204 -198 444 -262 22 -6 54 -15 70 -20 17 -5
75 -17 130 -27 105 -20 189 -48 242 -80 26 -16 33 -28 39 -67 14 -95 -30 -154
-146 -197 -71 -26 -244 -23 -327 5 -89 31 -185 119 -216 201 -7 19 -47 23 -76
7 -10 -5 -33 -11 -52 -13 -43 -6 -258 -55 -269 -62 -10 -6 13 -92 29 -108 6
-6 11 -18 11 -27 0 -9 7 -25 15 -35 106 -141 129 -161 256 -228 139 -73 244
-98 438 -104 178 -6 264 4 385 42 117 37 176 72 267 157 36 33 99 129 99 150
0 9 4 19 9 22 5 3 17 35 26 71 26 96 17 215 -25 325 -30 76 -41 93 -114 165
-121 120 -219 163 -486 216 -30 6 -75 15 -100 20 -25 5 -63 12 -85 15 -22 4
-44 10 -50 14 -5 4 -27 13 -47 19 -45 15 -98 72 -98 107 0 54 53 123 115 149
54 22 194 30 262 16 68 -15 156 -77 184 -129 20 -39 46 -61 72 -62 10 0 64 15
120 34 56 18 118 37 137 41 54 11 70 30 59 68 -27 94 -150 237 -246 287 -26
14 -49 28 -51 33 -2 4 -11 7 -21 7 -9 0 -21 4 -27 9 -5 4 -31 13 -59 20 -27 7
-66 16 -85 21 -45 12 -252 17 -355 8z"/>
<path d="M8500 4791 c-8 -6 -36 -11 -62 -11 -26 0 -50 -4 -53 -10 -3 -5 -17
-10 -29 -10 -42 0 -181 -79 -228 -128 -94 -99 -134 -210 -126 -352 3 -50 11
-97 18 -105 7 -8 10 -15 6 -15 -18 0 53 -106 104 -155 73 -69 209 -134 325
-156 73 -13 259 -59 310 -75 75 -24 113 -76 101 -137 -17 -85 -115 -136 -267
-138 -143 -3 -238 44 -305 151 -38 59 -40 60 -74 55 -57 -9 -133 -27 -158 -36
-13 -5 -38 -9 -57 -9 -19 0 -37 -4 -40 -10 -3 -5 -15 -10 -25 -10 -29 0 -30
-11 -8 -65 39 -97 53 -119 123 -188 42 -41 88 -72 151 -103 50 -25 100 -47
110 -49 10 -2 21 -4 24 -6 3 -1 10 -3 15 -4 6 -1 24 -4 40 -8 74 -16 95 -19
180 -21 168 -5 305 18 413 70 79 38 97 51 160 117 37 39 82 110 82 131 0 6 7
24 16 41 18 35 21 197 4 253 -39 125 -131 236 -243 294 -77 40 -106 50 -182
67 -33 7 -76 16 -95 21 -19 5 -62 14 -95 20 -98 19 -197 53 -221 77 -29 29
-40 77 -22 98 75 92 107 106 238 108 89 1 171 -30 208 -79 13 -16 31 -39 40
-52 30 -39 77 -39 206 3 113 36 116 38 116 67 0 30 -23 82 -46 106 -8 7 -14
17 -14 22 0 4 -21 30 -47 57 -87 90 -211 146 -358 164 -138 17 -220 20 -235
10z"/>
<path d="M2700 3903 l0 -878 38 -17 c33 -16 74 -17 417 -14 348 3 387 6 465
25 47 12 104 26 128 32 23 6 42 14 42 19 0 7 48 25 61 22 4 -1 15 8 24 18 10
11 22 20 28 20 8 0 22 11 78 63 10 9 23 17 29 17 6 0 10 7 10 15 0 8 4 15 9
15 4 0 25 21 44 48 20 26 40 52 45 57 4 6 23 39 41 75 18 36 38 74 43 84 56
107 80 419 44 581 -46 207 -122 342 -271 483 -68 65 -106 92 -178 126 -152 72
-193 77 -689 82 l-408 5 0 -878z m755 527 c68 -14 79 -18 113 -35 68 -35 151
-140 191 -243 29 -72 44 -203 36 -302 -4 -47 -7 -85 -6 -85 4 0 -58 -165 -70
-186 -38 -74 -119 -158 -182 -190 -74 -38 -299 -63 -361 -39 l-26 10 0 518 c0
478 1 520 18 540 16 20 25 22 132 21 63 0 133 -4 155 -9z"/>
<path d="M4390 3914 l0 -866 31 -29 31 -29 637 1 c350 0 645 4 656 8 19 8 20
16 17 137 -1 71 -8 150 -14 176 l-12 48 -440 2 -441 3 -3 164 c-2 152 -1 165
17 182 18 17 46 19 358 21 l338 3 3 135 c2 87 -1 148 -9 173 l-12 37 -326 0
c-179 0 -336 3 -348 6 -22 6 -23 10 -23 148 0 111 3 146 15 163 l16 22 431 1
c238 0 436 4 440 8 12 12 12 281 1 317 l-9 30 -677 3 -677 2 0 -866z"/>
<path d="M5870 3906 l0 -875 29 -20 c28 -20 40 -21 669 -21 592 0 642 1 658
17 15 15 16 33 10 157 -3 76 -12 151 -19 165 l-12 26 -430 3 c-237 1 -436 5
-443 7 -11 4 -13 41 -10 174 2 93 7 173 11 178 5 4 165 10 355 13 l347 5 0
145 c0 80 -3 156 -6 170 l-6 25 -349 5 c-192 3 -350 7 -351 8 -2 1 -3 69 -3
151 0 144 1 149 23 164 20 13 87 15 447 16 286 1 428 5 437 13 16 13 19 268 4
296 -5 9 -12 25 -15 35 -5 16 -46 17 -676 17 l-670 0 0 -874z"/>
<path d="M7391 4766 c-35 -19 -50 -54 -51 -113 0 -45 4 -57 30 -83 17 -17 51
-38 75 -47 32 -10 45 -20 45 -34 0 -23 -54 -85 -91 -105 -22 -11 -29 -22 -29
-44 0 -25 4 -30 24 -30 14 0 27 -4 30 -9 7 -10 44 -3 64 13 63 49 112 103 132
143 47 93 21 252 -49 302 -34 25 -141 29 -180 7z"/>
</g>
</svg>
